PathFileType	4	(X/Y/Z)	Patient4_TMGait_0pt4_02_left_23.trc.trc
DataRate	CameraRate	NumFrames	NumMarkers	Units	OrigDataRate	OrigDataStartFrame	OrigNumFrames
74.866310160428	74.866310160428	5	33	mm	74.866310160428	1	       141
Frame#	Time	Sacral			L.Shoulder			Chest			R.Shoulder			Neck			R.ASIS			L.ASIS			R.Thigh.Superior			R.Thigh.Lateral			R.Thigh.Inferior			R.Patella			L.Thigh.Superior			L.Thigh.Lateral			L.Thigh.Inferior			L.Patella			L.Shank.Superior			L.Shank.Lateral			L.Shank.Inferior			R.Shank.Superior			R.Shank.Lateral			R.Shank.Inferior			R.Heel			R.Midfoot.Superior			R.Midfoot.Lateral			R.Toe			L.Heel			L.Midfoot.Lateral			L.Midfoot.Superior			L.Toe			L.Elbow			L.Wrist			R.Elbow			R.Wrist			
		X1	Y1	Z1	X2	Y2	Z2	X3	Y3	Z3	X4	Y4	Z4	X5	Y5	Z5	X6	Y6	Z6	X7	Y7	Z7	X8	Y8	Z8	X9	Y9	Z9	X10	Y10	Z10	X11	Y11	Z11	X12	Y12	Z12	X13	Y13	Z13	X14	Y14	Z14	X15	Y15	Z15	X16	Y16	Z16	X17	Y17	Z17	X18	Y18	Z18	X19	Y19	Z19	X20	Y20	Z20	X21	Y21	Z21	X22	Y22	Z22	X23	Y23	Z23	X24	Y24	Z24	X25	Y25	Z25	X26	Y26	Z26	X27	Y27	Z27	X28	Y28	Z28	X29	Y29	Z29	X30	Y30	Z30	X31	Y31	Z31	X32	Y32	Z32	X33	Y33	Z33	

1	30.820000000000	919.166144871926	1004.193800611462	534.951804910182	1083.126219627463	1439.048289199733	351.819040370015	1195.042662155147	1371.960027734856	506.923511824846	1119.016413087540	1440.211778420057	686.252311962261	1073.982991195753	1498.614119747631	510.144703102960	1155.512542043952	944.471037292549	640.434052459389	1127.427875564677	970.142715359258	368.215859760500	1189.911419284631	741.041374338900	609.342656649180	1107.224653058745	633.201470174673	672.030671580425	1181.263992229785	579.595317252237	589.736696616341	1178.721444234980	492.218955009491	594.987197229443	1213.832950300961	785.266836936607	390.552283774985	1167.485396201299	657.759380188759	311.331766497096	1274.346574722304	597.936362355457	365.467309554839	1290.873514879905	513.148877574635	357.650981536451	1236.346726685356	440.124716075419	349.286785200102	1105.713946466364	371.326583379093	300.128040184275	1121.495672490913	239.625830803479	351.368527393496	1149.186726755362	403.713452649598	602.319554169719	1077.083560542134	301.306883266612	665.303174614551	1114.594514442851	205.493349128672	599.171154462015	978.405004164100	42.924264335308	570.897090925793	1148.772643913693	96.950363960807	605.730883291414	1061.826990499151	37.077181070968	645.507898157856	1269.923148779689	44.897843128900	632.719047525733	950.041885131429	133.141894825883	388.447876587975	1015.071776882145	105.009894796775	305.770668658096	1116.267197810400	135.860288717586	327.623254394636	1217.298840546220	46.098161898857	292.884986472320	1041.356221138275	1085.987531294567	239.658827288841	1118.803013909185	835.491797054404	222.264762350723	1156.798606773716	1101.784998600157	825.869247188652	1372.671384652949	962.219770949023	790.492500493022	
2	30.833357142857	918.012154162456	1004.962979867961	536.971996216503	1081.568597857102	1439.104000880933	352.679676546781	1195.021306275174	1371.585247186228	506.446343905722	1121.397816987641	1440.182523971289	686.592366234028	1074.358793391525	1498.693421333965	510.932375478172	1154.994927817390	944.288570772260	640.327119696520	1124.781209282478	970.251204714775	368.423683961441	1187.229144758334	740.454784216442	609.052572100651	1104.218938118426	633.124786618474	672.412628422259	1177.142884386090	579.001703938242	589.784276409946	1173.979944435954	491.826379034905	595.108500759298	1211.179101736414	786.195077857209	390.612627660672	1165.538904713632	658.761362782408	310.998906130909	1272.216758136055	599.312009300252	365.771673594828	1290.265817175438	516.299865310891	357.368223593592	1239.583064094732	442.797569478322	348.293229616369	1114.079001185117	366.644340123518	299.296686299437	1138.861791695006	236.556638412369	349.097940313928	1144.143067072471	403.416896730626	602.515200245735	1072.140932160585	301.193575887010	665.744865451398	1109.176480811063	205.397103008885	599.391487589656	972.684819833180	42.970066765306	570.938791808751	1143.119035053792	96.892199511602	605.807740098585	1056.161499548797	37.069046446618	645.593313035028	1264.303685036521	44.752861989768	632.710024671210	976.354380449336	119.810341013327	386.725370148393	1041.780505085654	96.238514258770	303.391213333552	1140.399609376123	133.062481595381	324.668508109853	1245.820464765427	50.426276727525	288.681004103136	1032.224244670674	1086.933312755159	242.074695026765	1100.143049059682	834.440833253532	225.083461174574	1164.693295895257	1103.219705285202	826.431266033033	1385.690902730527	976.665662316862	786.310063790890	
3	30.846714285714	916.893252491420	1005.698983322340	538.960465138823	1080.053745764311	1439.143480021749	353.497673257798	1195.009104800902	1371.184783353904	505.942354282593	1123.757906582132	1440.124490482350	686.889043769556	1074.747607525986	1498.751477538048	511.670769053231	1154.467732901675	944.094114622573	640.196200527307	1122.159639095252	970.321447958664	368.600903404112	1184.580726343277	739.866325185274	608.762812433378	1101.258788428722	633.038279268703	672.788623832029	1173.075544986538	578.407078710722	589.821720972737	1169.302863040048	491.439133300777	595.228902890865	1208.432019884823	786.981973165015	390.672269666328	1163.480151313336	659.689584443983	310.604392082102	1269.915028331344	600.546928428635	366.093579316127	1289.480510156766	519.368386761388	357.095582674250	1242.654275022040	445.455497119244	347.312343798049	1122.465312554793	362.030845541763	298.374614360408	1156.157232564922	233.725791111370	346.848461375361	1139.164480909499	403.128124775946	602.707270465390	1067.248237844774	301.074200328737	666.181821043449	1103.803879417240	205.292344902848	599.602536725936	966.998543320405	43.011064546294	570.985024670127	1137.496199363746	96.828721792745	605.876808924542	1050.527366553785	37.057499203867	645.677315716909	1258.712758373108	44.610390393187	632.705801186028	1002.730120070901	106.903493759772	384.956561915892	1068.541770042931	87.856502126077	301.006997760934	1164.499186811274	130.586337064714	321.749499164318	1274.209364494975	55.089945167103	284.600203181615	1023.190198164031	1087.902825240974	244.431144743303	1081.784399086973	833.499001779424	227.920947186359	1172.533658533652	1104.615105860559	826.904004492322	1398.452623345490	991.069047855238	782.064755821120	
4	30.860071428571	915.842335268000	1006.373253559788	540.868957998884	1078.619408387642	1439.156776816109	354.223627964127	1195.008771608365	1370.744871917500	505.382420654331	1126.059967849191	1440.019501893779	687.094642003300	1075.153206618662	1498.774270867815	512.305717516174	1153.930382469138	943.881861999492	640.013440543925	1119.599573194811	970.329790018951	368.710381807704	1181.999769775511	739.276466969124	608.463907698679	1098.378517782213	632.937612223474	673.141913046255	1169.103538316809	577.812980530939	589.833505049400	1164.731517662495	491.060466893189	595.335153901619	1205.554542664497	787.530409141769	390.714759791287	1161.239091877853	660.478671852160	310.108490355496	1267.348250543305	601.534258504923	366.413194095263	1288.405459420132	522.271432231963	356.827768551658	1245.418252166296	448.069801287799	346.347930924290	1130.803406689314	357.595296986959	297.307334410255	1173.160295297058	231.347539221024	344.645515251660	1134.302351732636	402.854782622253	602.886593962273	1062.443543098608	300.949105169204	666.602174022034	1098.517623977263	205.176061016664	599.793213970738	961.382091089131	43.044470826250	571.038417204666	1131.938083964513	96.757890146518	605.931045102484	1044.958710336830	37.041632474402	645.758299433779	1253.181345265524	44.474119747723	632.708751364901	1028.943406177580	94.879833986906	383.117067274923	1095.128712668665	80.240450651052	298.637672305037	1188.306735409054	128.698596966626	318.916919032194	1302.090325506422	60.286059586204	280.787397158915	1014.383164504085	1088.914138241417	246.664933445176	1064.067714672222	832.766863324266	230.770573945696	1180.240447136093	1105.939908496152	827.181951800798	1410.656127984765	1005.348094054515	777.698721139601	
5	30.873428571429	914.879227522867	1006.968071761267	542.653586045903	1077.292625392204	1439.137939145143	354.813901049630	1195.020454067359	1370.257151285484	504.738851131763	1128.274568555852	1439.857063356051	687.166894418522	1075.576938743776	1498.753353173331	512.791192868533	1153.385280557838	943.648798356410	639.755769626821	1117.126234681172	970.262225252419	368.719730290920	1179.507050914844	738.684367833490	608.143950104305	1095.593760097136	632.820478804258	673.453483192955	1165.244436059847	577.219299305003	589.803173474141	1160.279747290400	490.692085070327	595.410539733971	1202.524374881910	787.778146951530	390.721543178801	1158.770133236601	661.085887222516	309.477730990708	1264.463965627385	602.205240990608	366.695187034780	1286.965462291269	524.950441399422	356.553706139258	1247.773614217741	450.624825101968	345.399742240873	1139.034849962584	353.443552605505	296.051344503173	1189.676547583852	229.601588977810	342.510031322199	1129.577172379739	402.599905586955	603.038456531844	1057.737995779525	300.820145499146	666.992618657692	1093.331907706418	205.047798919980	599.953923690441	955.847256828022	43.067807046774	571.101135925823	1126.454759592576	96.679451883195	605.965677103177	1039.465204640717	37.021664464887	645.835195542738	1247.717368424188	44.347459864296	632.719500007449	1054.764948826205	84.131175599964	381.183011132275	1121.330682154719	73.694753421767	296.307612371490	1211.594004767277	127.608177070302	316.221470963156	1329.147423946279	66.143549801940	277.400937159403	1005.894183164644	1089.984407621018	248.731570991387	1047.232988014876	832.321439581792	233.625652501340	1187.765109040059	1107.174884296580	827.168335423397	1422.071357667844	1019.465371477732	773.149505179203	
